<?xml version="1.0" encoding="UTF-8"?>
<svg width="48px" height="32px" viewBox="0 0 48 32" version="1.1" xmlns="http://www.w3.org/2000/svg" xmlns:xlink="http://www.w3.org/1999/xlink">
    <!-- Generator: Sketch 49.1 (51147) - http://www.bohemiancoding.com/sketch -->
    <title>computer logo@2x</title>
    <desc>Created with Sketch.</desc>
    <defs></defs>
    <g id="FINAL" stroke="none" stroke-width="1" fill="none" fill-rule="evenodd">
        <g id="mobile,-tablets" transform="translate(-304.000000, -211.000000)" fill="#0092F3">
            <g id="computer-menu" transform="translate(281.000000, 167.000000)">
                <g id="computer-logo" transform="translate(23.000000, 44.000000)">
                    <path d="M24.0004465,3.92982456 C24.3083163,3.92982456 24.5581395,3.67854035 24.5581395,3.36842105 C24.5581395,3.05830175 24.3083163,2.80701754 24.0004465,2.80701754 C23.6916837,2.80701754 23.4418605,3.05830175 23.4418605,3.36842105 C23.4418605,3.67876491 23.6916837,3.92982456 24.0004465,3.92982456" id="Fill-57"></path>
                    <path d="M44.0934698,29.754386 C44.4013395,29.754386 44.6511628,29.5031018 44.6511628,29.1929825 C44.6511628,28.8828632 44.4013395,28.6315789 44.0934698,28.6315789 C43.784707,28.6315789 43.5348837,28.8828632 43.5348837,29.1929825 C43.5348837,29.5033263 43.784707,29.754386 44.0934698,29.754386" id="Fill-58"></path>
                    <path d="M41.3027721,29.754386 C41.6106419,29.754386 41.8604651,29.5031018 41.8604651,29.1929825 C41.8604651,28.8828632 41.6106419,28.6315789 41.3027721,28.6315789 C40.9940093,28.6315789 40.744186,28.8828632 40.744186,29.1929825 C40.744186,29.5033263 40.9940093,29.754386 41.3027721,29.754386" id="Fill-59"></path>
                    <path d="M39.070214,29.754386 C39.3780837,29.754386 39.627907,29.5031018 39.627907,29.1929825 C39.627907,28.8828632 39.3780837,28.6315789 39.070214,28.6315789 C38.7614512,28.6315789 38.5116279,28.8828632 38.5116279,29.1929825 C38.5116279,29.5033263 38.7614512,29.754386 39.070214,29.754386" id="Fill-60"></path>
                    <path d="M5.98531212,5.75587263 L41.4565483,5.75587263 L41.4565483,24.7017544 L42.9767442,24.7017544 L42.9767442,2.81073422 C42.9767442,1.26074206 41.7266365,0 40.1897185,0 L7.25214198,0 C5.71547736,0 4.46511628,1.26074206 4.46511628,2.81073422 L4.46511628,24.5310662 L5.98531212,24.5310662 L5.98531212,5.75587263 Z M7.25214198,1.53312775 L40.1897185,1.53312775 C40.8882485,1.53312775 41.4565483,2.10626201 41.4565483,2.81073422 L41.4565483,4.73378746 L5.98531212,4.73378746 L5.98531212,2.81073422 C5.98531212,2.10626201 6.553612,1.53312775 7.25214198,1.53312775 Z" id="Fill-61"></path>
                    <path d="M0,26.3859649 L0,29.1929825 C0,30.7406699 1.26,32 2.80851064,32 L45.1914894,32 C46.7402553,32 48,30.7406699 48,29.1929825 L48,26.3859649 L0,26.3859649 Z M20.4255319,28.4274322 L27.5744681,28.4274322 L27.5744681,27.9170654 L20.4255319,27.9170654 L20.4255319,28.4274322 Z M46.4680851,29.1929825 C46.4680851,29.8962679 45.8954043,30.4688995 45.1914894,30.4688995 L2.80851064,30.4688995 C2.10459574,30.4688995 1.53191489,29.8962679 1.53191489,29.1929825 L1.53191489,27.9170654 L19.4042553,27.9170654 L19.4042553,29.4481659 L28.5957447,29.4481659 L28.5957447,27.9170654 L46.4680851,27.9170654 L46.4680851,29.1929825 Z" id="Fill-62"></path>
                </g>
            </g>
        </g>
    </g>
</svg>