<?xml version="1.0" encoding="UTF-8"?>
<svg width="54px" height="38px" viewBox="0 0 54 38" version="1.1" xmlns="http://www.w3.org/2000/svg" xmlns:xlink="http://www.w3.org/1999/xlink">
    <!-- Generator: Sketch 49.1 (51147) - http://www.bohemiancoding.com/sketch -->
    <title>console logo@2x</title>
    <desc>Created with Sketch.</desc>
    <defs></defs>
    <g id="FINAL" stroke="none" stroke-width="1" fill="none" fill-rule="evenodd">
        <g id="mobile,-tablets" transform="translate(-208.000000, -208.000000)" fill="#FFFFFF">
            <g id="console-menu" transform="translate(188.000000, 167.000000)">
                <g id="console-logo">
                    <g transform="translate(20.000000, 41.000000)">
                        <path d="M15.6687957,2.05371513 C15.4551228,2.05371513 15.3376843,2.0649732 15.3311599,2.0649732 C2.52220385,2.61340197 1.95947753,23.8268196 2.08996479,30.3146836 C2.11932442,31.7830574 2.60375839,33.1388505 3.4535567,34.1327771 C4.60510681,35.4789204 5.98500962,35.7828883 7.66503315,35.057547 C8.38923746,34.7455377 9.08734433,34.251791 9.80013101,33.5505741 L15.960761,27.476042 C16.2249977,27.2219314 17.7239701,25.9883687 22.1377018,25.9883687 L31.8622652,25.9883687 C36.2759969,25.9883687 37.7766004,27.2219314 38.0326817,27.4696089 L44.199836,33.5505741 C44.9126227,34.2533993 45.6107295,34.7455377 46.3365649,35.057547 C48.0165885,35.7828883 49.3948602,35.4789204 50.5480414,34.1311688 C51.3962086,33.1388505 51.8806426,31.7846657 51.9100022,30.3146836 C52.0421206,23.8268196 51.4793942,2.61340197 38.7470994,2.07140638 C38.6378164,2.06175661 35.4213053,1.7433141 31.1315365,4.58356395 C30.7759587,4.87466544 29.595049,5.6386058 26.9999835,5.6386058 C24.404918,5.6386058 23.2240083,4.87466544 22.8700616,4.58356395 C19.3811584,2.27405162 16.6034107,2.05371513 15.6687957,2.05371513 Z M48.008433,37.4892898 C47.2043053,37.4892898 46.3642935,37.3059441 45.5047086,36.9344279 C44.5374718,36.5178793 43.6305853,35.8858192 42.7318543,34.9996484 L36.5712243,28.9251163 C36.5647,28.9251163 35.4066255,28.0373372 31.8622652,28.0373372 L22.1377018,28.0373372 C18.547671,28.0373372 17.4042763,28.9492407 17.3928587,28.9588905 L11.2681127,34.9996484 C10.3693817,35.8842109 9.46249521,36.5178793 8.49688946,36.9344279 C5.96869871,38.0232439 3.61503469,37.495723 1.86487426,35.4531877 C0.710061973,34.1022195 0.0527323798,32.2912788 0.0135862006,30.3564993 C-0.126687608,23.3974047 0.551846165,0.646456575 15.1631576,0.0256545134 C15.2349256,0.0111798539 19.0679889,-0.421451635 24.0835931,2.92058641 C24.134157,2.95436061 24.1798275,2.99135141 24.223867,3.0315588 C24.2287602,3.0315588 24.9823242,3.59124563 26.9999835,3.59124563 C29.0551579,3.59124563 29.8005664,3.01065095 29.8070908,3.00421777 C29.8315571,2.98491823 29.8902764,2.93827766 29.9163739,2.92058641 C34.9319781,-0.421451635 38.7650414,0.0160047404 38.9232573,0.0320876954 C53.4497519,0.646456575 54.1266546,23.3974047 53.9863808,30.3564993 C53.9472346,32.2928871 53.289905,34.1022195 52.1350927,35.4531877 C50.9819115,36.8009393 49.5644936,37.4876815 48.008433,37.4892898 Z" id="Fill-150"></path>
                        <path d="M39.2142857,8.89576368 C39.2142857,10.3001122 38.0617718,11.4374104 36.6428571,11.4374104 C35.2220531,11.4374104 34.0714286,10.3001122 34.0714286,8.89576368 C34.0714286,7.49328262 35.2220531,6.35411692 36.6428571,6.35411692 C38.0617718,6.35411692 39.2142857,7.49328262 39.2142857,8.89576368" id="Fill-151"></path>
                        <path d="M39.2142857,20.3341082 C39.2142857,21.7371047 38.0617718,22.8748209 36.6428571,22.8748209 C35.2220531,22.8748209 34.0714286,21.7371047 34.0714286,20.3341082 C34.0714286,18.9292436 35.2220531,17.7915274 36.6428571,17.7915274 C38.0617718,17.7915274 39.2142857,18.9292436 39.2142857,20.3341082" id="Fill-152"></path>
                        <path d="M47.5714286,15.2489465 C47.5714286,16.6538112 46.420804,17.7915274 45,17.7915274 C43.5810853,17.7915274 42.4285714,16.6538112 42.4285714,15.2489465 C42.4285714,13.84595 43.5810853,12.7082338 45,12.7082338 C46.420804,12.7082338 47.5714286,13.84595 47.5714286,15.2489465" id="Fill-153"></path>
                        <path d="M11.2885487,15.5722361 C10.7802489,15.5722361 10.3666634,15.9973834 10.3666634,16.5198926 C10.3666634,17.0440246 10.7802489,17.4691719 11.2885487,17.4691719 L14.464633,17.4691719 C15.0202899,17.4691719 15.4701826,17.9316412 15.4701826,18.5028315 L15.4701826,21.7660802 C15.4701826,22.2902122 15.8837681,22.7153595 16.3920679,22.7153595 C16.9003676,22.7153595 17.3155317,22.2902122 17.3155317,21.7660802 L17.3155317,18.5028315 C17.3155317,17.9316412 17.7654244,17.4691719 18.3195027,17.4691719 L21.495587,17.4691719 C22.0038868,17.4691719 22.4190509,17.0440246 22.4190509,16.5198926 C22.4190509,15.9973834 22.0038868,15.5722361 21.495587,15.5722361 L18.3195027,15.5722361 C17.7654244,15.5722361 17.3155317,15.1097667 17.3155317,14.5385765 L17.3155317,11.273705 C17.3155317,10.7511958 16.9003676,10.3260485 16.3920679,10.3260485 C15.8837681,10.3260485 15.4701826,10.7511958 15.4701826,11.273705 L15.4701826,14.5385765 C15.4701826,15.1097667 15.0202899,15.5722361 14.464633,15.5722361 L11.2885487,15.5722361 Z M16.3920679,24.781056 C14.7756114,24.781056 13.4590834,23.4293473 13.4590834,21.7660802 L13.4590834,19.5348684 L11.2885487,19.5348684 C9.67209227,19.5348684 8.35714286,18.1831597 8.35714286,16.5198926 C8.35714286,14.8582483 9.67209227,13.5049169 11.2885487,13.5049169 L13.4590834,13.5049169 L13.4590834,11.273705 C13.4590834,9.61206071 14.7756114,8.26035199 16.3920679,8.26035199 C18.0101029,8.26035199 19.3250523,9.61206071 19.3250523,11.273705 L19.3250523,13.5049169 L21.495587,13.5049169 C23.1120434,13.5049169 24.4285714,14.8582483 24.4285714,16.5198926 C24.4285714,18.1831597 23.1120434,19.5348684 21.495587,19.5348684 L19.3250523,19.5348684 L19.3250523,21.7660802 C19.3250523,23.4293473 18.0101029,24.781056 16.3920679,24.781056 Z" id="Fill-154"></path>
                    </g>
                </g>
            </g>
        </g>
    </g>
</svg>