<?xml version="1.0" encoding="UTF-8"?>
<svg width="82px" height="54px" viewBox="0 0 82 54" version="1.1" xmlns="http://www.w3.org/2000/svg" xmlns:xlink="http://www.w3.org/1999/xlink">
    <!-- Generator: Sketch 50.2 (55047) - http://www.bohemiancoding.com/sketch -->
    <title>console</title>
    <desc>Created with Sketch.</desc>
    <defs></defs>
    <g id="Final_designshare" stroke="none" stroke-width="1" fill="none" fill-rule="evenodd">
        <g id="web_1" transform="translate(-788.000000, -827.000000)" stroke="#FFFFFF">
            <g id="Group-34" transform="translate(788.000000, 828.000000)">
                <g id="console">
                    <g id="gamer">
                        <path d="M54.2606113,41.205604 L27.1455393,41.205604 C21.4535865,49.3064154 13.5495572,53.5555802 7.01107824,51.1757685 C-1.7426749,47.9896629 -0.457757231,36.842844 4.60607583,22.930077 C7.08717154,16.1133225 10.0151104,9.89733809 13.386038,5.70463377 L13.386038,5.56429781 L13.4996508,5.56429781 C16.9810922,1.29379651 20.9322248,-0.814334115 25.3488399,0.793182326 C27.7354203,1.66182654 29.693676,3.32396245 31.1771471,5.56429781 L50.2290035,5.56429781 C51.7124746,3.32396245 53.6707303,1.66182654 56.0573107,0.793182326 C60.4739258,-0.814334115 64.4250584,1.29379651 67.9064998,5.56429781 L67.9623988,5.56429781 L67.9623988,5.63310172 C71.3576311,9.82646134 74.30483,16.0744484 76.8000748,22.930077 C81.8639078,36.842844 83.1488255,47.9896629 74.3950723,51.1757685 C67.8565934,53.5555802 59.952564,49.3064154 54.2606113,41.205604 Z" id="Combined-Shape"></path>
                        <ellipse id="Oval-4" cx="59.8759279" cy="15.1026087" rx="2.75715801" ry="2.93913043"></ellipse>
                        <ellipse id="Oval-4" cx="60.0031813" cy="27.7634783" rx="2.75715801" ry="2.93913043"></ellipse>
                        <ellipse id="Oval-4" cx="65.2205726" cy="21.6591304" rx="2.75715801" ry="2.93913043"></ellipse>
                        <ellipse id="Oval-4" cx="54.4888653" cy="21.6591304" rx="2.75715801" ry="2.93913043"></ellipse>
                        <path d="M30.3896925,21.5553669 L25.930728,21.5553669 L25.930728,17.4191304 C25.930728,16.5907033 25.2591551,15.9191304 24.430728,15.9191304 L23.8895265,15.9191304 C23.0610994,15.9191304 22.3895265,16.5907033 22.3895265,17.4191304 L22.3895265,21.5553669 L17.930562,21.5553669 C17.1021349,21.5553669 16.430562,22.2269398 16.430562,23.0553669 L16.430562,23.5965683 C16.430562,24.4249954 17.1021349,25.0965683 17.930562,25.0965683 L22.3895265,25.0965683 L22.3895265,29.8782609 C22.3895265,30.706688 23.0610994,31.3782609 23.8895265,31.3782609 L24.430728,31.3782609 C25.2591551,31.3782609 25.930728,30.706688 25.930728,29.8782609 L25.930728,25.0965683 L30.3896925,25.0965683 C31.2181196,25.0965683 31.8896925,24.4249954 31.8896925,23.5965683 L31.8896925,23.0553669 C31.8896925,22.2269398 31.2181196,21.5553669 30.3896925,21.5553669 Z" id="Combined-Shape"></path>
                    </g>
                </g>
            </g>
        </g>
    </g>
</svg>