<?xml version="1.0" encoding="UTF-8"?>
<svg width="75px" height="51px" viewBox="0 0 75 51" version="1.1" xmlns="http://www.w3.org/2000/svg" xmlns:xlink="http://www.w3.org/1999/xlink">
    <!-- Generator: Sketch 50.2 (55047) - http://www.bohemiancoding.com/sketch -->
    <title>computers, phone, tab</title>
    <desc>Created with Sketch.</desc>
    <defs></defs>
    <g id="Final_designshare" stroke="none" stroke-width="1" fill="none" fill-rule="evenodd">
        <g id="web_1" transform="translate(-128.000000, -827.000000)" stroke="#FFFFFF">
            <g id="Group-26" transform="translate(127.000000, 826.000000)">
                <g id="computers,-phone,-tab">
                    <g>
                        <g id="Group" transform="translate(0.681818, 0.909091)">
                            <path d="M72.5,19.6067194 L71.3607306,19.6067194 L71.3607306,16 C71.3607306,15.1715729 70.6891577,14.5 69.8607306,14.5 L62.4090909,14.5 L62.4090909,2.09090909 C62.4090909,1.26248197 61.737518,0.590909091 60.9090909,0.590909091 L2.31818182,0.590909091 C1.48975469,0.590909091 0.818181818,1.26248197 0.818181818,2.09090909 L0.818181818,38.6590909 C0.818181818,39.487518 1.48975469,40.1590909 2.31818182,40.1590909 L49.5,40.1590909 L49.5,49.0909091 C49.5,49.9193362 50.1715729,50.5909091 51,50.5909091 L72.5,50.5909091 C73.3284271,50.5909091 74,49.9193362 74,49.0909091 L74,21.1067194 C74,20.2782922 73.3284271,19.6067194 72.5,19.6067194 Z" id="Combined-Shape"></path>
                            <path d="M72.5,19.6067194 L71.3607306,19.6067194 L71.3607306,16 C71.3607306,15.1715729 70.6891577,14.5 69.8607306,14.5 L51,14.5 C50.1715729,14.5 49.5,15.1715729 49.5,16 L49.5,49.0909091 C49.5,49.9193362 50.1715729,50.5909091 51,50.5909091 L72.5,50.5909091 C73.3284271,50.5909091 74,49.9193362 74,49.0909091 L74,21.1067194 C74,20.2782922 73.3284271,19.6067194 72.5,19.6067194 Z" id="Combined-Shape"></path>
                            <rect id="small-copy-3" x="55.283105" y="19.6067194" width="18.716895" height="30.9841897" rx="2"></rect>
                            <g id="Baby-phone" transform="translate(62.000000, 21.000000)">
                                <path d="M0.0410958904,0.480368693 L5.20319635,0.480368693" id="Line" stroke-linecap="square"></path>
                                <ellipse id="Oval" cx="2.62214612" cy="26.3784585" rx="1.18378995" ry="1.17108978"></ellipse>
                            </g>
                        </g>
                        <path d="M58.5311333,17.2059475 L63.6932337,17.2059475" id="Line" stroke-linecap="square"></path>
                        <path d="M32.5852273,41.5880142 L32.5852273,50.825969" id="Line-7" stroke-linecap="square"></path>
                        <path d="M19.5454545,51.1306818 L45.0262527,51.1306818" id="Line-8" stroke-linecap="square"></path>
                        <path d="M2.15909091,35.1931818 L49.6818182,35.1931818" id="Line-2" stroke-linecap="square"></path>
                    </g>
                </g>
            </g>
        </g>
    </g>
</svg>