<?xml version="1.0" encoding="UTF-8"?>
<svg width="44px" height="52px" viewBox="0 0 44 52" version="1.1" xmlns="http://www.w3.org/2000/svg" xmlns:xlink="http://www.w3.org/1999/xlink">
    <!-- Generator: Sketch 49.1 (51147) - http://www.bohemiancoding.com/sketch -->
    <title>phone logo@2x</title>
    <desc>Created with Sketch.</desc>
    <defs></defs>
    <g id="FINAL" stroke="none" stroke-width="1" fill="none" fill-rule="evenodd">
        <g id="mobile,-tablets" transform="translate(-25.000000, -201.000000)" fill="#FFFFFF">
            <g id="phone-menu" transform="translate(0.000000, 167.000000)">
                <g id="phone-logo">
                    <g transform="translate(25.000000, 34.000000)">
                        <path d="M14.8732394,42.9361966 C14.8732394,44.3087721 15.9851518,45.4252515 17.3521127,45.4252515 C18.7182473,45.4252515 19.8301596,44.3087721 19.8309859,42.9361966 C19.8309859,41.5638977 18.7190736,40.4471417 17.3521127,40.4471417 C15.9851518,40.4471417 14.8732394,41.5638977 14.8732394,42.9361966 Z M18.7292645,42.93592 C18.728989,43.6986771 18.1111987,44.3190049 17.3521127,44.3190049 C16.5927512,44.3190049 15.9749609,43.6986771 15.9749609,42.9361966 C15.9749609,42.1739927 16.5927512,41.5533883 17.3521127,41.5533883 C18.1114742,41.5533883 18.7292645,42.1739927 18.7292645,42.93592 Z" id="Fill-19"></path>
                        <polygon id="Fill-20" points="15.4929577 4.97810975 19.8309859 4.97810975 19.8309859 3.73358231 15.4929577 3.73358231"></polygon>
                        <path d="M1.73724313,7.30401012 L33.5867005,7.30401012 L33.5867005,17.5296243 L35.3239437,17.5296243 L35.3239437,3.21376445 C35.3239437,1.4418116 33.8950612,0 32.1389979,0 L3.18494574,0 C1.42859293,0 0,1.4418116 0,3.21376445 L0,44.7005419 C0,46.4724948 1.42859293,47.9143064 3.18494574,47.9143064 L23.4527823,47.9143064 L23.4527823,46.1613439 L3.18494574,46.1613439 C2.38668252,46.1613439 1.73724313,45.5060281 1.73724313,44.7005419 L1.73724313,38.8573338 L23.4527823,38.8573338 L23.4527823,37.6886922 L1.73724313,37.6886922 L1.73724313,7.30401012 Z M3.18494574,1.75296243 L32.1389979,1.75296243 C32.9372611,1.75296243 33.5867005,2.40827822 33.5867005,3.21376445 L33.5867005,6.1353685 L1.73724313,6.1353685 L1.73724313,3.21376445 C1.73724313,2.40827822 2.38668252,1.75296243 3.18494574,1.75296243 Z" id="Fill-21"></path>
                        <polygon id="Fill-22" points="32.8450704 23.6460213 37.1830986 23.6460213 37.1830986 22.4014939 32.8450704 22.4014939"></polygon>
                        <path d="M34.7042254,45.4252515 C33.6791159,45.4252515 32.8450704,46.2627227 32.8450704,47.2920426 C32.8450704,48.3213626 33.6791159,49.1588338 34.7042254,49.1588338 C35.7293348,49.1588338 36.5633803,48.3213626 36.5633803,47.2920426 C36.5633803,46.2627227 35.7293348,45.4252515 34.7042254,45.4252515 Z M34.7042254,48.0100392 C34.3097985,48.0100392 33.9891658,47.6880896 33.9891658,47.2920426 C33.9891658,46.8962829 34.3097985,46.574046 34.7042254,46.574046 C35.0986522,46.574046 35.4192849,46.8962829 35.4192849,47.2920426 C35.4192849,47.6880896 35.0986522,48.0100392 34.7042254,48.0100392 Z" id="Fill-23"></path>
                        <path d="M40.7014993,19.2901753 L28.7069514,19.2901753 C26.8879782,19.2901753 25.4084507,20.74186 25.4084507,22.5259466 L25.4084507,48.4121173 C25.4084507,50.196204 26.8879782,51.6478887 28.7069514,51.6478887 L40.7014993,51.6478887 C42.5201726,51.6478887 44,50.196204 44,48.4121173 L44,22.5259466 C44,20.74186 42.5201726,19.2901753 40.7014993,19.2901753 Z M28.7069514,21.0551415 L40.7014993,21.0551415 C41.5282235,21.0551415 42.2008178,21.7149447 42.2008178,22.5259466 L42.2008178,24.2909128 L27.2076329,24.2909128 L27.2076329,22.5259466 C27.2076329,21.7149447 27.8802272,21.0551415 28.7069514,21.0551415 Z M27.2076329,43.1172188 L42.2008178,43.1172188 L42.2008178,25.4675569 L27.2076329,25.4675569 L27.2076329,43.1172188 Z M40.7014993,49.8829225 L28.7069514,49.8829225 C27.8802272,49.8829225 27.2076329,49.2231193 27.2076329,48.4121173 L27.2076329,44.2938629 L42.2008178,44.2938629 L42.2008178,48.4121173 C42.2008178,49.2231193 41.5282235,49.8829225 40.7014993,49.8829225 Z" id="Fill-24"></path>
                    </g>
                </g>
            </g>
        </g>
    </g>
</svg>