<?xml version="1.0" encoding="UTF-8"?>
<svg width="66px" height="57px" viewBox="0 0 66 57" version="1.1" xmlns="http://www.w3.org/2000/svg" xmlns:xlink="http://www.w3.org/1999/xlink">
    <!-- Generator: Sketch 50.2 (55047) - http://www.bohemiancoding.com/sketch -->
    <title>smarthome</title>
    <desc>Created with Sketch.</desc>
    <defs></defs>
    <g id="Final_designshare" stroke="none" stroke-width="1" fill="none" fill-rule="evenodd">
        <g id="web_1" transform="translate(-1087.000000, -826.000000)">
            <g id="Group-36" transform="translate(1084.000000, 826.000000)">
                <g id="smarthome">
                    <g id="smart-home">
                        <g id="Group-31" transform="translate(15.000000, 3.000000)">
                            <g id="Group-30" stroke="#FFFFFF">
                                <ellipse id="Oval-7-Copy" transform="translate(36.471559, 6.900042) rotate(-10.000000) translate(-36.471559, -6.900042) " cx="36.471559" cy="6.90004177" rx="11.8655294" ry="4.83250654"></ellipse>
                                <path d="M0.5,40.1216969 L0.5,50.7400201 C3.13572282,52.5237943 7.97675854,53.4355075 15,53.4355075 C22.0232415,53.4355075 26.8642772,52.5237943 29.5,50.7400201 L29.5,47.9746786 L49.1894358,47.9746786 C52.0465196,45.3854501 53.4720868,41.9631094 53.4720868,37.6716516 C53.4720868,33.3722075 51.7806602,22.9375989 48.4005217,6.41880655 C47.2635877,8.87827287 42.8703509,11.1865312 37.397539,12.1515356 C31.2430661,13.2367352 25.79052,12.2587267 24.5286255,9.7517667 C21.424503,22.4670381 19.7574057,31.3971474 19.527479,36.5206756 L19.5049651,37.0223605 L19.0033834,36.9976545 C17.8038998,36.9385723 16.5060761,36.9090072 15.1100407,36.9090072 C6.53780906,36.9090072 1.64602051,38.0404486 0.5,40.1216969 Z M48.1005577,4.61728035 L48.5227207,4.53010858 L48.5952191,5.02482463 L48.1694257,5.08722278 L48.1005577,4.61728035 Z M24.8674778,8.16927711 L24.8861077,8.29640372 C24.8687417,8.36668183 24.8514177,8.43684936 24.8341358,8.5069063 L24.5017751,8.55561228 L24.4292767,8.06089622 L24.8674778,8.16927711 Z" id="Combined-Shape"></path>
                                <path d="M0.5,40.1216969 L0.5,50.7400201 C3.13572282,52.5237943 7.97675854,53.4355075 15,53.4355075 C22.0232415,53.4355075 26.8642772,52.5237943 29.5,50.7400201 L29.5,40.1081081 C28.4995787,38.0421229 23.6817753,36.9090072 15.1100407,36.9090072 C6.53780906,36.9090072 1.64602051,38.0404486 0.5,40.1216969 Z" id="Rectangle-11-Copy"></path>
                                <path d="M21.4980062,26.8555704 L51.4740806,26.8555704" id="Line-13" stroke-linecap="square"></path>
                                <path d="M0.752305075,40.3241558 C1.42590197,42.6402721 6.17513361,43.7983303 15,43.7983303 C23.8248664,43.7983303 28.5358821,42.7294602 29.1330472,40.5917199" id="Line-10" stroke-linecap="square"></path>
                            </g>
                            <g id="Group-32" transform="translate(0.000000, 40.000000)"></g>
                            <circle id="Oval-6" fill="#FFFFFF" cx="24.5" cy="47.5" r="1.5"></circle>
                        </g>
                        <g id="Group-24" transform="translate(15.000000, 15.500000) rotate(-10.000000) translate(-15.000000, -15.500000) translate(2.000000, 3.000000)" stroke="#FFFFFF" stroke-linecap="square">
                            <path d="M8,23 C8.80183847,18.0714966 10.4819369,14.4080143 13.0402954,12.0095532 C15.5986539,9.61109217 19.2518888,8.27457442 24,8" id="Line-3"></path>
                            <path d="M16,24 C16.4009192,21.7000317 17.2409685,19.9904067 18.5201477,18.8711248 C19.799327,17.751843 21.6259444,17.1281347 24,17" id="Line-3"></path>
                            <path d="M0,25 C1.30298752,16.7858276 4.03314754,10.6800238 8.19048007,6.68258873 C12.3478126,2.68515361 18.2843192,0.457624033 26,0" id="Line-3"></path>
                        </g>
                    </g>
                </g>
            </g>
        </g>
    </g>
</svg>