<?xml version="1.0" encoding="UTF-8"?>
<svg width="51px" height="42px" viewBox="0 0 51 42" version="1.1" xmlns="http://www.w3.org/2000/svg" xmlns:xlink="http://www.w3.org/1999/xlink">
    <!-- Generator: Sketch 49.1 (51147) - http://www.bohemiancoding.com/sketch -->
    <title>tv logo@2x</title>
    <desc>Created with Sketch.</desc>
    <defs></defs>
    <g id="FINAL" stroke="none" stroke-width="1" fill="none" fill-rule="evenodd">
        <g id="mobile,-tablets" transform="translate(-115.000000, -206.000000)" fill="#FFFFFF">
            <g id="tv-menu" transform="translate(94.000000, 167.000000)">
                <g id="tv-logo" transform="translate(21.000000, 39.000000)">
                    <polygon id="Fill-39" points="36.5113636 10.4746655 46.9431818 10.4746655 46.9431818 9.31081374 36.5113636 9.31081374"></polygon>
                    <polygon id="Fill-40" points="36.5113636 13.3842948 46.9431818 13.3842948 46.9431818 12.220443 36.5113636 12.220443"></polygon>
                    <path d="M42.0170455,28.5143671 C41.2172727,28.5143671 40.5681818,29.1661241 40.5681818,29.9691817 C40.5681818,30.7734033 41.2172727,31.4239964 42.0170455,31.4239964 C42.8168182,31.4239964 43.4653295,30.7728214 43.4659091,29.9691817 C43.4659091,29.1661241 42.8168182,28.5143671 42.0170455,28.5143671" id="Fill-41"></path>
                    <path d="M42.0170455,22.1131826 C40.8985227,22.1131826 39.9886364,23.0270972 39.9886364,24.1499231 C39.9886364,25.2730401 40.8985227,26.1866637 42.0170455,26.1866637 C43.1346989,26.1866637 44.0445852,25.273331 44.0454545,24.1499231 C44.0454545,23.0270972 43.1355682,22.1131826 42.0170455,22.1131826 Z M42.0170455,25.0228119 C41.5377614,25.0228119 41.1477273,24.6314668 41.1477273,24.1499231 C41.1477273,23.6686705 41.5377614,23.2770344 42.0170455,23.2770344 C42.4963295,23.2770344 42.8863636,23.6686705 42.8863636,24.1496322 C42.8860739,24.6311758 42.4960398,25.0228119 42.0170455,25.0228119 Z" id="Fill-42"></path>
                    <polygon id="Fill-43" points="39.4090909 7.56503617 44.625 7.56503617 44.625 6.40118445 39.4090909 6.40118445"></polygon>
                    <path d="M47.8125,0 L35.6420455,0 C33.8842841,0 32.4545455,1.43561109 32.4545455,3.20059222 L32.4545455,37.5342179 C32.4545455,39.2989081 33.8842841,40.7348101 35.6420455,40.7348101 L47.8125,40.7348101 C49.5699716,40.7348101 51,39.2989081 51,37.5342179 L51,3.20059222 C51,1.43561109 49.5699716,0 47.8125,0 Z M49.2613636,37.5342179 C49.2613636,38.3364027 48.6114034,38.9890326 47.8125,38.9890326 L35.6420455,38.9890326 C34.843142,38.9890326 34.1931818,38.3364027 34.1931818,37.5342179 L34.1931818,3.20059222 C34.1931818,2.39840743 34.843142,1.74577758 35.6420455,1.74577758 L47.8125,1.74577758 C48.6114034,1.74577758 49.2613636,2.39840743 49.2613636,3.20059222 L49.2613636,37.5342179 Z" id="Fill-44"></path>
                    <path d="M0,4.9463698 L0,29.3872559 C0,31.151946 1.44894398,32.5878481 3.23031694,32.5878481 L30.7159091,32.5878481 L30.7159091,30.8420705 L3.23031694,30.8420705 C2.42068205,30.8420705 1.76199106,30.1894407 1.76199106,29.3872559 L1.76199106,27.9324412 L30.7159091,27.9324412 L30.7159091,26.7685895 L1.76199106,26.7685895 L1.76199106,8.14696203 L30.7159091,8.14696203 L30.7159091,6.98311031 L1.76199106,6.98311031 L1.76199106,4.9463698 C1.76199106,4.14418501 2.42068205,3.49155515 3.23031694,3.49155515 L30.7159091,3.49155515 L30.7159091,1.74577758 L3.23031694,1.74577758 C1.44894398,1.74577758 0,3.18138867 0,4.9463698" id="Fill-45"></path>
                    <path d="M26.3693182,39.5011273 C25.2507955,39.5011273 24.3409091,38.5482354 24.3409091,37.3771678 L24.3409091,33.7516998 L22.6022727,33.7516998 L22.6022727,37.3771678 C22.6022727,38.1593925 22.8239489,38.8874516 23.2015227,39.5011273 L18.5254602,39.5011273 C18.9030341,38.8874516 19.125,38.1593925 19.125,37.3771678 L19.125,33.7516998 L17.3863636,33.7516998 L17.3863636,37.3771678 C17.3863636,38.5482354 16.4761875,39.5011273 15.3579545,39.5011273 L11.5909091,39.5011273 L11.5909091,41.316736 L30.1363636,41.316736 L30.1363636,39.5011273 L26.3693182,39.5011273" id="Fill-46"></path>
                    <path d="M20.2840909,5.52829566 C20.2840909,6.01082858 20.6731977,6.40118445 21.1534091,6.40118445 C21.6332727,6.40118445 22.0227273,6.01047943 22.0227273,5.52829566 C22.0227273,5.04611189 21.6332727,4.65540687 21.1534091,4.65540687 C20.6731977,4.65540687 20.2840909,5.04611189 20.2840909,5.52829566" id="Fill-47"></path>
                    <path d="M23.1818182,29.3872559 C23.1818182,29.8697888 23.570925,30.2601447 24.0511364,30.2601447 C24.531,30.2601447 24.9204545,29.8694396 24.9204545,29.3872559 C24.9204545,28.9050721 24.531,28.5143671 24.0511364,28.5143671 C23.570925,28.5143671 23.1818182,28.9050721 23.1818182,29.3872559" id="Fill-48"></path>
                    <path d="M20.2840909,29.3872559 C20.2840909,29.8697888 20.6731977,30.2601447 21.1534091,30.2601447 C21.6332727,30.2601447 22.0227273,29.8694396 22.0227273,29.3872559 C22.0227273,28.9050721 21.6332727,28.5143671 21.1534091,28.5143671 C20.6731977,28.5143671 20.2840909,28.9050721 20.2840909,29.3872559" id="Fill-49"></path>
                    <path d="M17.3863636,29.3872559 C17.3863636,29.8697888 17.7754705,30.2601447 18.2556818,30.2601447 C18.7355455,30.2601447 19.125,29.8694396 19.125,29.3872559 C19.125,28.9050721 18.7355455,28.5143671 18.2556818,28.5143671 C17.7754705,28.5143671 17.3863636,28.9050721 17.3863636,29.3872559" id="Fill-50"></path>
                </g>
            </g>
        </g>
    </g>
</svg>