<?xml version="1.0" encoding="UTF-8"?>
<svg width="81px" height="53px" viewBox="0 0 81 53" version="1.1" xmlns="http://www.w3.org/2000/svg" xmlns:xlink="http://www.w3.org/1999/xlink">
    <!-- Generator: Sketch 50.2 (55047) - http://www.bohemiancoding.com/sketch -->
    <title>tv</title>
    <desc>Created with Sketch.</desc>
    <defs></defs>
    <g id="Final_designshare" stroke="none" stroke-width="1" fill="none" fill-rule="evenodd">
        <g id="web_1" transform="translate(-453.000000, -828.000000)" stroke="#FFFFFF">
            <g id="Group-3" transform="translate(453.000000, 828.000000)">
                <g id="tv">
                    <g id="Group-25">
                        <path d="M25.5485764,51.5803571 L50.5757776,51.5803571" id="Line-5" stroke-linecap="square"></path>
                        <path d="M78.5496753,44.9821429 L74.6475249,44.9821429 L74.714561,44.4226594 C74.7264614,44.3233381 74.7324675,44.2228387 74.7324675,44.1214791 L74.7324675,3 C74.7324675,1.61928813 73.6131794,0.5 72.2324675,0.5 L3.08383668,0.5 C1.70312481,0.5 0.583836682,1.61928813 0.583836682,3 L0.583836682,44.1214791 C0.583836682,45.502191 1.70312481,46.6214791 3.08383668,46.6214791 L58.2321429,46.6214791 L58.2321429,50.3805195 C58.2321429,51.2089466 58.9037157,51.8805195 59.7321429,51.8805195 L78.5496753,51.8805195 C79.3781024,51.8805195 80.0496753,51.2089466 80.0496753,50.3805195 L80.0496753,46.4821429 C80.0496753,45.6537157 79.3781024,44.9821429 78.5496753,44.9821429 Z" id="Combined-Shape"></path>
                        <rect id="Rectangle-12-Copy" x="58.2321429" y="44.9821429" width="21.8175325" height="6.89837662" rx="2"></rect>
                        <circle id="Oval-2" cx="69.5625" cy="48.7410714" r="1.41964286"></circle>
                    </g>
                </g>
            </g>
        </g>
    </g>
</svg>